<?xml version="1.0" encoding="UTF-8" standalone="no"?>
<!-- Created with Inkscape (http://www.inkscape.org/) -->

<svg
   width="21.333334"
   height="21.333332"
   viewBox="0 0 5.6444442 5.6444443"
   version="1.1"
   id="svg5"
   xml:space="preserve"
   sodipodi:docname="disconnected_shield_dark.svg"
   inkscape:version="1.3 (0e150ed, 2023-07-21)"
   xmlns:inkscape="http://www.inkscape.org/namespaces/inkscape"
   xmlns:sodipodi="http://sodipodi.sourceforge.net/DTD/sodipodi-0.dtd"
   xmlns="http://www.w3.org/2000/svg"
   xmlns:svg="http://www.w3.org/2000/svg"><sodipodi:namedview
     id="namedview1"
     pagecolor="#ffffff"
     bordercolor="#000000"
     borderopacity="0.25"
     inkscape:showpageshadow="2"
     inkscape:pageopacity="0.0"
     inkscape:pagecheckerboard="0"
     inkscape:deskcolor="#d1d1d1"
     inkscape:zoom="11.062501"
     inkscape:cx="10.711864"
     inkscape:cy="10.666666"
     inkscape:window-width="1312"
     inkscape:window-height="449"
     inkscape:window-x="0"
     inkscape:window-y="38"
     inkscape:window-maximized="0"
     inkscape:current-layer="svg5" /><defs
     id="defs2" /><g
     id="layer1"
     transform="translate(100.22856,-7.9029154)"><g
       id="g75"
       transform="matrix(0.95901347,0,0,0.96059601,48.695639,15.476364)"
       style="stroke-width:1.04187"><path
         id="path72"
         style="color:#000000;opacity:0.35;fill:#000000;stroke-width:1.3635;-inkscape-stroke:none"
         d="m -152.34768,-7.8462021 -0.0284,0.00517 c -0.36846,0.084881 -0.92441,0.195988 -1.55236,0.5632732 l 3.54965,3.569808 c 0.0344,-0.067863 0.0676,-0.1361441 0.0977,-0.2056722 0.30802,-0.7106028 0.39666,-1.4994894 0.39895,-2.2897828 0.0253,-0.2166012 -0.0533,-0.4534175 -0.22222,-0.603064 -0.88867,-0.7599415 -1.71829,-0.9208891 -2.21174,-1.0345622 z m -2.39675,1.2479858 c -0.0583,0.1229043 -0.081,0.2625046 -0.0656,0.394808 0.003,0.7903104 0.0909,1.5791773 0.39893,2.2897827 0.30978,0.7145877 0.84273,1.3458261 1.71049,1.7988566 l 0.005,0.00259 h 0.003 c 0.10355,0.046718 0.22277,0.065387 0.3452,0.066146 h 0.003 c 0.12241,-7.536e-4 0.2417,-0.019467 0.3452,-0.066146 h 0.003 l 0.005,-0.00259 c 0.3954,-0.2064238 0.72059,-0.4504726 0.98753,-0.7219198 z" /><path
         style="fill:#000000;fill-opacity:1;stroke:#000000;stroke-width:0.413496;stroke-linecap:round;stroke-dasharray:none;stroke-opacity:1"
         d="m -154.81463,-7.4182678 4.56528,4.5904781"
         id="path73" /><g
         id="g74"
         transform="translate(-1.0327026)"
         style="stroke-width:1.04187"><path
           style="color:#000000;fill:#f0bc86;stroke-width:1.04187;stroke-linecap:round;-inkscape-stroke:none"
           d="m -153.78193,-7.4182678 4.56528,4.5904781"
           id="path74" /></g></g></g></svg>
