<?xml version="1.0" encoding="UTF-8" standalone="no"?>
<!-- Created with Inkscape (http://www.inkscape.org/) -->

<svg
   width="21.333334"
   height="21.333332"
   viewBox="0 0 5.6444442 5.6444443"
   version="1.1"
   id="svg5"
   xml:space="preserve"
   sodipodi:docname="connected_shield_dark.svg"
   inkscape:version="1.3 (0e150ed, 2023-07-21)"
   xmlns:inkscape="http://www.inkscape.org/namespaces/inkscape"
   xmlns:sodipodi="http://sodipodi.sourceforge.net/DTD/sodipodi-0.dtd"
   xmlns="http://www.w3.org/2000/svg"
   xmlns:svg="http://www.w3.org/2000/svg"><sodipodi:namedview
     id="namedview1"
     pagecolor="#ffffff"
     bordercolor="#000000"
     borderopacity="0.25"
     inkscape:showpageshadow="2"
     inkscape:pageopacity="0.0"
     inkscape:pagecheckerboard="0"
     inkscape:deskcolor="#d1d1d1"
     inkscape:zoom="9.8232059"
     inkscape:cx="9.4164778"
     inkscape:cy="10.688975"
     inkscape:window-width="1312"
     inkscape:window-height="449"
     inkscape:window-x="0"
     inkscape:window-y="38"
     inkscape:window-maximized="0"
     inkscape:current-layer="svg5" /><defs
     id="defs2" /><g
     id="layer1"
     transform="translate(125.4406,-7.9027399)"
     style="fill:#000000"><path
       id="path71"
       style="color:#000000;fill:#000000;stroke-width:1.30869;-inkscape-stroke:none"
       d="m -122.61962,7.9391599 -0.0272,0.00497 c -0.47401,0.1091966 -1.27092,0.263797 -2.1246,0.9937957 h -0.003 c -0.16225,0.143745 -0.23521,0.3712164 -0.21097,0.5793018 0.003,0.7591696 0.0873,1.5169506 0.38322,2.1995566 0.29757,0.68643 0.8095,1.292795 1.64309,1.727975 l 0.005,0.0026 h 0.003 c 0.0995,0.04488 0.21399,0.06281 0.33158,0.06354 h 0.003 c 0.11759,-7.25e-4 0.2322,-0.01871 0.33162,-0.06354 h 0.003 l 0.005,-0.0026 c 0.83358,-0.435182 1.34555,-1.041547 1.64309,-1.727975 0.29588,-0.682604 0.38102,-1.440403 0.38322,-2.1995566 0.0243,-0.2080665 -0.0513,-0.4355518 -0.21347,-0.5793018 -0.85365,-0.7299976 -1.65057,-0.8846016 -2.12458,-0.9937957 z" /></g></svg>
