<?xml version="1.0" encoding="UTF-8" standalone="no"?>
<!-- Created with Inkscape (http://www.inkscape.org/) -->

<svg
   width="21.333334"
   height="21.333332"
   viewBox="0 0 5.6444442 5.6444443"
   version="1.1"
   id="svg5"
   xml:space="preserve"
   xmlns="http://www.w3.org/2000/svg"
   xmlns:svg="http://www.w3.org/2000/svg"><defs
     id="defs2" /><g
     id="layer1"
     transform="translate(112.39427,-7.9029154)"><g
       id="g89"
       transform="matrix(0.96059601,0,0,0.96059601,-4.3175829,0.42261383)"
       style="stroke-width:1.04102"><path
         id="path75"
         style="color:#000000;fill:#ffffff;stroke-width:1.36237;-inkscape-stroke:none"
         d="m -109.57393,7.8250593 -0.0284,0.00517 c -0.49345,0.1136757 -1.32306,0.2746194 -2.21175,1.0345622 h -0.003 c -0.16891,0.1496412 -0.24486,0.3864432 -0.21962,0.603064 0.003,0.7903105 0.0909,1.5791775 0.39894,2.2897825 0.30977,0.714588 0.84272,1.345826 1.71049,1.798857 l 0.005,0.0026 h 0.003 c 0.10355,0.04672 0.22277,0.06539 0.3452,0.06615 h 0.002 V 7.8250593 Z" /><path
         id="path76"
         style="color:#000000;opacity:0.35;fill:#ffffff;stroke-width:1.36237;-inkscape-stroke:none"
         d="m -109.57052,7.8250617 0.0284,0.00517 c 0.49345,0.1136757 1.32306,0.2746194 2.21175,1.0345622 h 0.003 c 0.16891,0.1496412 0.24486,0.3864432 0.21962,0.603064 -0.003,0.7903101 -0.0909,1.5791771 -0.39894,2.2897831 -0.30977,0.714587 -0.84272,1.345826 -1.71049,1.798856 l -0.005,0.0026 h -0.003 c -0.10355,0.04672 -0.22277,0.06539 -0.3452,0.06615 h -0.002 V 7.8250605 Z" /></g></g></svg>
